<svg x="0" y="0" viewBox="0 0 12.849999 22.590004" xmlns="http://www.w3.org/2000/svg">
	<path d="M 12.701249,11.29125 L 12.26,12.370001 12.591718,11.863907 Z M 12.26,12.370001 L 2.79541,21.667034 3.2999997,21.32 Z M 2.79541,21.667034 L 1.7473241,21.689846 2.263281,21.778751 Z M 1.7473241,21.689846 L 0.93876934,21.048904 1.2912498,21.435001 Z M 0.93876934,21.048904 L 0.7194334,20.02172 0.7335936,20.56625 Z M 0.7194334,20.02172 L 5.47,12.09 0.9399998,19.45 Z M 5.47,10.5 L 0.7194334,2.5682817 0.9399998,3.1400003 Z M 0.7194334,2.5682817 L 0.93876934,1.5410941 0.7335936,2.0237503 Z M 0.93876934,1.5410941 L 1.7473241,0.9001567 1.2912498,1.1550004 Z M 1.7473241,0.9001567 L 2.79541,0.92296916 2.263281,0.81125045 Z M 2.79541,0.92296916 L 12.25,10.22 3.2999997,1.2700005 Z M 12.25,10.22 L 12.701249,11.29125 12.587656,10.720469 Z M 12.701249,11.29125 L 2.79541,21.667034 12.26,12.370001 Z M 2.79541,21.667034 L 0.93876934,21.048904 1.7473241,21.689846 Z M 0.93876934,21.048904 L 5.47,12.09 0.7194334,20.02172 Z M 5.47,10.5 L 0.93876934,1.5410941 0.7194334,2.5682817 Z M 0.93876934,1.5410941 L 2.79541,0.92296916 1.7473241,0.9001567 Z M 2.79541,0.92296916 L 12.701249,11.29125 12.25,10.22 Z M 12.701249,11.29125 L 0.93876934,21.048904 2.79541,21.667034 Z M 5.47,10.5 L 2.79541,0.92296916 0.93876934,1.5410941 Z M 12.701249,11.29125 L 5.47,12.09 0.93876934,21.048904 Z M 5.6949997,11.295001 L 2.79541,0.92296916 5.47,10.5 Z M 12.701249,11.29125 L 5.6949997,11.295001 5.47,12.09 Z M 5.6949997,11.295001 L 12.701249,11.29125 2.79541,0.92296916 Z" fill="currentColor"/>
</svg>
