<svg x="0" y="0" viewBox="0 0 21 20.9" xmlns="http://www.w3.org/2000/svg">
	<path d="M 20.5,9.2 L 20.9,11.2 20.9,9.8 Z M 20.9,11.2 L 19,11.7 20.4,11.7 Z M 19,11.7 L 18.140625,14.373438 18.669922,13.08418 Z M 18.140625,14.373438 L 16.550001,16.5875 17.428516,15.547852 Z M 16.550001,16.5875 L 14.359375,18.182812 15.521484,17.472462 Z M 14.359375,18.182812 L 11.7,19 13.080078,18.698633 Z M 11.7,19 L 11.2,20.9 11.7,20.4 Z M 11.2,20.9 L 9.3,20.4 9.8,20.9 Z M 9.3,19 L 6.6265626,18.140625 7.915821,18.669922 Z M 6.6265626,18.140625 L 4.4125,16.550001 5.4521484,17.428516 Z M 4.4125,16.550001 L 2.8171875,14.359375 3.527539,15.521484 Z M 2.8171875,14.359375 L 2,11.7 2.3013673,13.080078 Z M 2,11.7 L 0,11.2 0.5,11.7 Z M 0,11.2 L 4.3,9.3 0,9.8 Z M 4.3,9.3 L 6.5,9.8 6,9.3 Z M 6.5,9.8 L 6,11.8 6.5,11.3 Z M 9.3,16.7 L 9.8,14.5 9.3,15 Z M 9.8,14.5 L 11.8,15 11.3,14.5 Z M 16.7,11.6 L 14.5,11.1 15,11.6 Z M 14.5,11.1 L 15,9.2 14.5,9.7 Z M 11.6,4.3 L 11.1,6.5 11.6,6 Z M 11.1,6.5 L 9.2,6 9.7,6.5 Z M 4.3,9.3 L 0.5,9.2 0,9.8 Z M 2,9.2 L 2.815625,6.584375 2.3011718,7.8488274 Z M 2.815625,6.584375 L 4.4,4.4 3.5222657,5.4277344 Z M 4.4,4.4 L 6.584375,2.815625 5.4277344,3.5222657 Z M 6.584375,2.815625 L 9.2,2 7.8488274,2.3011718 Z M 9.2,2 L 9.8,0 9.2,0.5 Z M 9.8,0 L 11.7,0.5 11.2,0 Z M 11.7,1.9 L 14.373438,2.759375 13.08418,2.2300782 Z M 14.373438,2.759375 L 16.5875,4.35 15.547852,3.4714847 Z M 16.5875,4.35 L 18.182812,6.540625 17.472462,5.3785157 Z M 18.182812,6.540625 L 19,9.2 18.698633,7.819922 Z M 19,9.2 L 20.9,11.2 20.5,9.2 Z M 19,11.7 L 16.550001,16.5875 18.140625,14.373438 Z M 16.550001,16.5875 L 11.7,19 14.359375,18.182812 Z M 11.7,19 L 9.3,20.4 11.2,20.9 Z M 9.3,19 L 4.4125,16.550001 6.6265626,18.140625 Z M 4.4125,16.550001 L 2,11.7 2.8171875,14.359375 Z M 2,11.7 L 4.3,9.3 0,11.2 Z M 4.3,9.3 L 6,11.8 6.5,9.8 Z M 9.3,16.7 L 11.8,15 9.8,14.5 Z M 16.7,11.6 L 15,9.2 14.5,11.1 Z M 11.6,4.3 L 9.2,6 11.1,6.5 Z M 4.3,9.3 L 2,9.2 0.5,9.2 Z M 2,9.2 L 4.4,4.4 2.815625,6.584375 Z M 4.4,4.4 L 9.2,2 6.584375,2.815625 Z M 9.2,2 L 11.7,0.5 9.8,0 Z M 11.7,1.9 L 16.5875,4.35 14.373438,2.759375 Z M 16.5875,4.35 L 19,9.2 18.182812,6.540625 Z M 19,9.2 L 19,11.7 20.9,11.2 Z M 19,11.7 L 11.7,19 16.550001,16.5875 Z M 11.7,19 L 9.3,19 9.3,20.4 Z M 9.3,19 L 2,11.7 4.4125,16.550001 Z M 2,11.7 L 6,11.8 4.3,9.3 Z M 9.3,16.7 L 11.8,16.7 11.8,15 Z M 16.7,11.6 L 16.5,9.2 15,9.2 Z M 11.6,4.3 L 9.2,4.4 9.2,6 Z M 4.555664,8.392188 L 2,9.2 4.3,9.3 Z M 2,9.2 L 9.2,2 4.4,4.4 Z M 9.2,2 L 11.7,1.9 11.7,0.5 Z M 11.7,1.9 L 19,9.2 16.5875,4.35 Z M 2,11.7 L 4.4,11.8 6,11.8 Z M 4.9390626,7.55 L 2,9.2 4.555664,8.392188 Z M 2,11.7 L 4.6515627,12.679102 4.4,11.8 Z M 5.437305,6.782813 L 2,9.2 4.9390626,7.55 Z M 2,11.7 L 5.025,13.5078125 4.6515627,12.679102 Z M 6.0375004,6.1000004 L 2,9.2 5.437305,6.782813 Z M 2,11.7 L 5.5109377,14.273243 5.025,13.5078125 Z M 6.726758,5.5109377 L 2,9.2 6.0375004,6.1000004 Z M 9.3,19 L 5.5109377,14.273243 2,11.7 Z M 6.726758,5.5109377 L 9.2,2 2,9.2 Z M 9.3,19 L 6.1000004,14.962501 5.5109377,14.273243 Z M 7.4921875,5.025 L 9.2,2 6.726758,5.5109377 Z M 9.3,19 L 6.782813,15.562696 6.1000004,14.962501 Z M 8.320898,4.6515627 L 9.2,2 7.4921875,5.025 Z M 11.7,19 L 6.782813,15.562696 9.3,19 Z M 9.2,4.4 L 9.2,2 8.320898,4.6515627 Z M 11.7,19 L 7.55,16.060938 6.782813,15.562696 Z M 11.6,4.3 L 9.2,2 9.2,4.4 Z M 11.7,19 L 8.392188,16.444336 7.55,16.060938 Z M 12.5078125,4.555664 L 9.2,2 11.6,4.3 Z M 11.7,19 L 9.3,16.7 8.392188,16.444336 Z M 13.35,4.9390626 L 9.2,2 12.5078125,4.555664 Z M 11.7,19 L 11.8,16.7 9.3,16.7 Z M 14.1171875,5.437305 L 9.2,2 13.35,4.9390626 Z M 11.7,19 L 12.679102,16.443947 11.8,16.7 Z M 14.1171875,5.437305 L 11.7,1.9 9.2,2 Z M 11.7,19 L 13.5078125,16.057814 12.679102,16.443947 Z M 14.8,6.0375004 L 11.7,1.9 14.1171875,5.437305 Z M 11.7,19 L 14.273243,15.552149 13.5078125,16.057814 Z M 15.389063,6.726758 L 11.7,1.9 14.8,6.0375004 Z M 19,11.7 L 14.273243,15.552149 11.7,19 Z M 15.389063,6.726758 L 19,9.2 11.7,1.9 Z M 19,11.7 L 14.962501,14.9375 14.273243,15.552149 Z M 15.875,7.4921875 L 19,9.2 15.389063,6.726758 Z M 19,11.7 L 15.562696,14.224414 14.962501,14.9375 Z M 16.248436,8.320898 L 19,9.2 15.875,7.4921875 Z M 19,9.2 L 15.562696,14.224414 19,11.7 Z M 16.5,9.2 L 19,9.2 16.248436,8.320898 Z M 19,9.2 L 16.060938,13.423437 15.562696,14.224414 Z M 16.7,11.6 L 19,9.2 16.5,9.2 Z M 19,9.2 L 16.444336,12.545117 16.060938,13.423437 Z M 16.444336,12.545117 L 19,9.2 16.7,11.6 Z " fill="currentColor" />
</svg>
